<svg width="64" height="64" viewBox="0 0 64 64" fill="none" xmlns="http://www.w3.org/2000/svg">
<path d="M3 35.2742C3 35.6484 3 48.0591 3 53.9839L17.9677 61M3 35.2742L17.9677 42.7581M3 35.2742L17.5 28.2581M17.9677 61V42.7581M17.9677 61L32 53.5161M17.9677 42.7581L32 35.2742M17.5 28.2581L32 35.2742M17.5 28.2581V10.9516M32 35.2742V53.5161M32 35.2742L46.9677 42.7581M32 35.2742L38.5484 32M32 35.2742V18.4355M32 53.5161L46.9677 60.5323M46.9677 60.5323V42.7581M46.9677 60.5323L61 52.5806V35.2742M46.9677 42.7581L61 35.2742M61 35.2742L54.4516 32.4677M17.5 10.9516L32.4677 3L46.5 10.4839M17.5 10.9516L32 18.4355M32 18.4355L46.5 10.4839M46.5 10.4839V16.0968M37.1452 23.3468L43.6935 31.0645L52.5806 24.5161L59.5968 19.371" stroke="#F8A720" stroke-width="2"/>
</svg>
