<svg width="64" height="64" viewBox="0 0 64 64" fill="none" xmlns="http://www.w3.org/2000/svg">
<path d="M9.10526 33.5263V57.9474H30.4737V33.5263H9.10526ZM33.5263 33.5263V57.9474H54.8947V33.5263H33.5263ZM57.9474 33.5263V61H6.05263V33.5263H3V15.2105H12.28L12.1579 13.6842C12.1579 10.8506 13.2836 8.13301 15.2872 6.12933C17.2909 4.12566 20.0085 3 22.8421 3C26.7189 3 30.1379 5.07579 32 8.18947C33.8621 5.07579 37.2811 3 41.1579 3C43.9915 3 46.7091 4.12566 48.7128 6.12933C50.7165 8.13301 51.8421 10.8506 51.8421 13.6842L51.72 15.2105H61V33.5263H57.9474ZM6.05263 18.2632V30.4737H30.4737V18.2632H6.05263ZM57.9474 30.4737V18.2632H33.5263V30.4737H57.9474ZM48.6368 15.2105L48.7895 13.6842C48.7895 11.6602 47.9854 9.71907 46.5542 8.28787C45.123 6.85667 43.1819 6.05263 41.1579 6.05263C39.1339 6.05263 37.1928 6.85667 35.7616 8.28787C34.3304 9.71907 33.5263 11.6602 33.5263 13.6842V15.2105H48.6368ZM30.4737 15.2105V13.6842C30.4737 11.6602 29.6696 9.71907 28.2384 8.28787C26.8072 6.85667 24.8661 6.05263 22.8421 6.05263C20.8181 6.05263 18.877 6.85667 17.4458 8.28787C16.0146 9.71907 15.2105 11.6602 15.2105 13.6842L15.3632 15.2105H30.4737Z" fill="#F8A720"/>
</svg>
