<svg width="64" height="64" viewBox="0 0 64 64" fill="none" xmlns="http://www.w3.org/2000/svg">
<path d="M18.2016 31.8971C18.2016 31.2288 18.2016 14.3539 18.2016 6H25.7201M45.3518 31.8971V6H37.4156M25.7201 6V16.0247L31.1502 12.6831L37.4156 16.8601V6M25.7201 6H37.4156M31.1502 28.5556C26.472 27.8873 22.5178 30.5048 21.1255 31.8971H10.2654V43.1749C11.3792 42.8965 14.1917 42.8408 16.5308 44.8457M31.1502 28.5556C34.1576 26.8848 39.6433 30.0871 42.0103 31.8971H52.8704V44.0103C51.6173 43.8711 48.944 43.6762 48.2757 44.0103M31.1502 28.5556L25.3024 35.2387C24.6063 37.188 24.3 40.5852 28.644 38.5803L33.2387 33.5679L48.2757 44.0103M16.5308 44.8457C14.5259 48.5214 17.9231 49.1619 19.8724 49.0227M16.5308 44.8457C18.2016 42.7572 21.9609 39.6663 23.6316 44.0103M48.2757 44.0103C48.8326 46.238 48.6934 50.1087 43.6811 47.7696C44.6557 49.7188 45.4354 53.0326 40.7572 50.6935C41.7318 52.3642 42.5115 55.2881 37.8333 53.6173C38.3902 56.2627 38.251 60.4675 33.2387 56.1235M33.2387 56.1235C31.7071 57.6551 28.3098 59.5486 26.9732 54.8704M33.2387 56.1235L33.6564 51.9466C33.9905 49.9416 31.8463 49.9973 30.7325 50.2758M26.9732 54.8704C25.3024 55.4273 22.295 55.6223 23.6316 51.9466M26.9732 54.8704L30.7325 50.2758M23.6316 51.9466C22.1001 52.5035 19.2041 52.6984 19.8724 49.0227M23.6316 51.9466L27.8086 46.9342M19.8724 49.0227L23.6316 44.0103M23.6316 44.0103C25.1632 43.7319 28.1428 43.9268 27.8086 46.9342M27.8086 46.9342C29.3402 46.9342 32.0691 47.6025 30.7325 50.2758" stroke="#F8A720" stroke-width="2"/>
<rect x="5" y="29.5557" width="5.51853" height="15.5432" stroke="#F8A720" stroke-width="2"/>
<rect x="52.6172" y="29.5557" width="5.51853" height="15.5432" stroke="#F8A720" stroke-width="2"/>
</svg>
