<svg width="64" height="64" viewBox="0 0 64 64" fill="none" xmlns="http://www.w3.org/2000/svg">
<path d="M22.4467 20.9162C23.1045 20.5135 23.6073 19.9767 23.9521 19.3071C24.3053 18.6396 24.4813 17.9089 24.4813 17.1178V16.0223C24.4813 15.2125 24.3055 14.472 23.9517 13.8037C23.5974 13.1346 23.0901 12.598 22.4324 12.1954C21.7781 11.7891 20.9907 11.5897 20.0772 11.5897C19.1818 11.5897 18.3996 11.7895 17.7367 12.1951C17.0788 12.5978 16.5714 13.1344 16.217 13.8037C15.8632 14.472 15.6874 15.2125 15.6874 16.0223V17.1178C15.6874 17.9092 15.8635 18.6401 16.217 19.3079C16.5714 19.9772 17.0788 20.5139 17.7367 20.9165L17.7376 20.917C18.4097 21.3222 19.201 21.5219 20.1057 21.5219C21.0101 21.5219 21.7927 21.3223 22.4467 20.9162ZM22.4467 20.9162C22.4465 20.9163 22.4464 20.9164 22.4462 20.9165L22.3679 20.7885M22.4467 20.9162C22.4468 20.9161 22.4469 20.916 22.447 20.9159L22.3679 20.7885M22.3679 20.7885C23.0034 20.3996 23.4871 19.8827 23.8191 19.2377L17.815 20.7885C18.46 21.1774 19.2236 21.3719 20.1057 21.3719C20.9878 21.3719 21.7419 21.1774 22.3679 20.7885ZM21.9585 14.8265L21.9585 14.8265L21.9602 14.8305C22.1222 15.1995 22.2037 15.5962 22.2037 16.0223V17.1178C22.2037 17.5351 22.1267 17.9281 21.9732 18.2981C21.8224 18.662 21.5929 18.9576 21.2836 19.1876C20.9831 19.4019 20.5941 19.5145 20.1057 19.5145C19.6175 19.5145 19.2228 19.4019 18.9119 19.1864C18.5933 18.956 18.3548 18.6603 18.1949 18.2967C18.0419 17.9271 17.965 17.5346 17.965 17.1178V16.0223C17.965 15.5953 18.0421 15.1979 18.1951 14.8285C18.3557 14.4541 18.5902 14.159 18.8982 13.939L18.8982 13.939L18.8988 13.9386C19.2101 13.7138 19.5998 13.5971 20.0772 13.5971C20.565 13.5971 20.9536 13.7142 21.2541 13.9374L21.254 13.9375L21.2579 13.9402C21.5746 14.1601 21.8078 14.4542 21.9585 14.8265ZM26.3044 30.9888L26.3052 30.9903C26.669 31.6588 27.1808 32.195 27.8384 32.5974C28.5015 33.0031 29.2885 33.2028 30.1931 33.2028C31.0975 33.2028 31.8801 33.0032 32.5341 32.597C33.1919 32.1944 33.6947 31.6576 34.0395 30.988C34.3929 30.3202 34.5687 29.5847 34.5687 28.7845V27.6747C34.5687 26.8741 34.3927 26.1384 34.0391 25.4704C33.6848 24.8012 33.1775 24.2646 32.5198 23.8621C31.8655 23.4558 31.0781 23.2564 30.1646 23.2564C29.2692 23.2564 28.487 23.4562 27.8241 23.8618C27.1662 24.2644 26.6587 24.8011 26.3044 25.4704C25.9508 26.1384 25.7748 26.8741 25.7748 27.6747V28.7845C25.7748 29.5851 25.9508 30.3208 26.3044 30.9888ZM32.0606 26.4801L32.0606 26.4801L32.0618 26.483C32.2238 26.8519 32.3053 27.2486 32.3053 27.6747V28.7845C32.3053 29.2117 32.2281 29.6094 32.0749 29.979C31.9243 30.3421 31.6907 30.6375 31.372 30.8678C31.0713 31.0825 30.682 31.1954 30.1931 31.1954C29.7049 31.1954 29.3101 31.0828 28.9993 30.8673C28.6808 30.637 28.4424 30.3415 28.2825 29.9782C28.1292 29.5986 28.0524 29.201 28.0524 28.7845V27.6747C28.0524 27.248 28.1294 26.8508 28.2823 26.4816C28.4426 26.117 28.6769 25.8262 28.9856 25.6057L28.9862 25.6053C29.2975 25.3805 29.6872 25.2637 30.1646 25.2637C30.6626 25.2637 31.0557 25.3812 31.3557 25.6041L31.3556 25.6041L31.3596 25.6069C31.6771 25.8274 31.9102 26.1174 32.0606 26.4801ZM30.9463 15.0631L31.0252 14.9368L30.8995 14.857L29.4198 13.918L29.2923 13.837L29.2122 13.9651L19.0964 30.1562L19.0174 30.2825L19.1432 30.3623L20.6229 31.3014L20.7504 31.3823L20.8305 31.2542L30.9463 15.0631Z" fill="#F8A720" stroke="#F8A720" stroke-width="0.3"/>
<path d="M38.6016 8.09756V4H12.6504V35.4146H4L25.8537 56.3577L30.8618 51.3496M38.6016 8.09756V35.4146H46.7967L30.8618 51.3496M38.6016 8.09756H52.7154V39.5122H60L39.5122 60L30.8618 51.3496" stroke="#F8A720" stroke-width="2"/>
</svg>
